<svg xmlns="http://www.w3.org/2000/svg" width="50" height="50" fill="#75306c" preserveAspectRatio="xMidYMid meet" viewBox="0 0 50 50" style="width:100%;height:100%;transform:translate3d(0,0,0)"><defs><clipPath id="__lottie_element_2"><rect width="50" height="50" x="0" y="0"/></clipPath></defs><g clip-path="url(#__lottie_element_2)"><g opacity="1" style="display:block"><g opacity="1"><path fill-opacity="0" stroke="#000" stroke-linecap="round" stroke-linejoin="miter" stroke-miterlimit="10" stroke-opacity="1" stroke-width="2" d="M25,21.31846809387207 C25,21.31846809387207 25,28.673080444335938 25,28.673080444335938 M31,15.628485679626465 C31,15.628485679626465 31,34.36306381225586 31,34.36306381225586 M37,8.363062858581543 C37,8.363062858581543 37,41.62848663330078 37,41.62848663330078 M43,16.792348861694336 C43,16.792348861694336 43,33.173709869384766 43,33.173709869384766 M7,14.764792442321777 C7,14.764792442321777 7,35.22675704956055 7,35.22675704956055 M13,8.363062858581543 C13,8.363062858581543 13,41.62848663330078 13,41.62848663330078 M19,17.673080444335938 C19,17.673080444335938 19,32.31001663208008 19,32.31001663208008 M49,21.31846809387207 C49,21.31846809387207 49,28.673080444335938 49,28.673080444335938 M1,21.31846809387207 C1,21.31846809387207 1.0085872411727905,28.673080444335938 1.0085872411727905,28.673080444335938" transform="matrix(1,0,0,1,0,0) matrix(1,0,0,1,0,0)"/></g></g></g></svg>